<?xml version="1.0"?>
<svg xmlns="http://www.w3.org/2000/svg" id="Capa_1" enable-background="new 0 0 512 512" height="512px" viewBox="0 0 512 512" width="512px"><g><g><g><path d="m456.628 184.26c20.077-13.937 33.258-37.226 33.258-63.551 0-42.559-34.449-77.183-76.792-77.183-42.344 0-76.792 34.624-76.792 77.183 0 26.326 13.181 49.615 33.258 63.551-17.94 7.236-32.978 20.201-42.833 36.617-7.033-13.944-18.591-25.232-32.732-31.923 14.146-11.28 23.233-28.701 23.233-48.215 0-33.926-27.467-61.527-61.228-61.527s-61.227 27.601-61.227 61.527c0 19.514 9.087 36.935 23.233 48.215-14.141 6.691-25.699 17.979-32.732 31.923-9.856-16.415-24.893-29.38-42.833-36.617 20.077-13.937 33.258-37.226 33.258-63.551 0-42.559-34.449-77.183-76.792-77.183s-76.792 34.624-76.792 77.183c0 26.326 13.181 49.615 33.258 63.551-32.429 13.08-55.373 44.878-55.373 81.934v49.418c0 5.523 4.477 10 10 10h130.393c-.334 3.042-.506 6.144-.506 9.296 0 78.172 107.233 130.401 111.798 132.586 1.349.645 2.824.98 4.317.98.1 0 .2-.001.3-.004l.472-.014c1.398-.042 2.772-.377 4.033-.983 4.545-2.185 111.305-54.403 111.305-132.564 0-3.152-.172-6.254-.506-9.296h2.894c5.523 0 10-4.477 10-10s-4.477-10-10-10h-7.701c-6.314-16.521-17.874-29.982-32.611-38.192v-1.226c0-37.662 30.641-68.303 68.303-68.303h21.207c37.662 0 68.303 30.641 68.303 68.303v39.418h-27.087c-5.523 0-10 4.477-10 10s4.477 10 10 10h37.086c5.523 0 10-4.477 10-10v-49.418c0-37.057-22.944-68.855-55.372-81.935zm-200.628-85.049c22.733 0 41.228 18.629 41.228 41.527s-18.495 41.527-41.228 41.527-41.227-18.629-41.227-41.527 18.494-41.527 41.227-41.527zm-8.132 103.054h16.265c27.601 0 50.056 22.455 50.056 50.056v7.717c-4.527-.913-9.217-1.39-14.032-1.39-16.683 0-31.773 5.609-44.157 16.322-9.911-8.556-24.36-16.322-44.154-16.322-4.815 0-9.505.477-14.032 1.39v-7.717c-.002-27.601 22.453-50.056 50.054-50.056zm-205.754-81.556c0-31.531 25.477-57.183 56.792-57.183s56.792 25.652 56.792 57.183-25.477 57.183-56.792 57.183c-31.316 0-56.792-25.653-56.792-57.183zm-22.114 184.903v-39.418c0-37.662 30.641-68.303 68.303-68.303h21.207c37.662 0 68.303 30.641 68.303 68.303v1.226c-14.737 8.21-26.297 21.671-32.611 38.192zm332.113 29.296c0 57.896-77.126 102.457-95.896 112.44-18.888-10.004-96.329-54.57-96.329-112.44 0-31.548 22.822-56.26 51.957-56.26 18.051 0 29.875 9.234 36.614 16.982 1.925 2.212 4.726 3.409 7.671 3.418 2.913-.033 5.681-1.352 7.556-3.58.092-.096.182-.193.271-.292 9.729-10.966 21.909-16.527 36.2-16.527 29.133-.001 51.956 24.711 51.956 56.259zm4.189-214.199c0-31.531 25.477-57.183 56.792-57.183s56.792 25.652 56.792 57.183-25.477 57.183-56.792 57.183-56.792-25.653-56.792-57.183z" data-original="#000000" class="active-path" data-old_color="#000000" fill="#100B1E"/><path d="m429.12 311.79c-1.611-3.933-5.702-6.456-9.941-6.148-4.154.302-7.747 3.224-8.894 7.225-1.151 4.015.391 8.436 3.784 10.874 3.34 2.4 7.952 2.47 11.372.189 3.92-2.615 5.49-7.795 3.679-12.14z" data-original="#000000" class="active-path" data-old_color="#000000" fill="#100B1E"/></g></g></g> </svg>
