<?xml version="1.0"?>
<svg xmlns="http://www.w3.org/2000/svg" id="Capa_1" enable-background="new 0 0 512 512" height="512px" viewBox="0 0 512 512" width="512px" class=""><g><g><path d="m226.345 261.135c7.424 6.023 15.099 12.253 23.254 19.048 1.854 1.545 4.128 2.317 6.401 2.317s4.548-.772 6.401-2.317c8.155-6.795 15.83-13.024 23.254-19.048 42.361-34.376 70.345-57.086 70.345-91.665 0-31.102-22.918-56.97-55-56.97-22.731 0-36.832 13.026-45 25.029-8.168-12.003-22.269-25.029-45-25.029-32.103 0-55 25.89-55 56.97 0 34.579 27.984 57.289 70.345 91.665zm-15.345-128.635c26.075 0 35.013 28.997 35.4 30.301 1.244 4.265 5.154 7.199 9.6 7.199 4.457 0 8.376-2.949 9.609-7.232.087-.303 9.022-30.268 35.391-30.268 19.953 0 35 15.894 35 36.97 0 25.052-25.042 45.374-62.947 76.135-5.51 4.472-11.157 9.054-17.053 13.91-5.896-4.856-11.543-9.438-17.053-13.91-37.905-30.761-62.947-51.084-62.947-76.135 0-21.076 15.047-36.97 35-36.97z" data-original="#000000" class="active-path" data-old_color="#000000" fill="#100B1E"/><path d="m66 190c0 11.333 4.741 27.705 26.103 43.916-10.396 24.707-6.318 41.262-.651 51.085 5.148 8.916 15.849 19.483 38.018 23.806l-62.236 113.381c-1.7 3.098-1.64 6.863.161 9.904 1.799 3.043 5.071 4.908 8.605 4.908h53.229l27.485 68.714c1.523 3.808 5.209 6.286 9.282 6.286.138 0 .274-.003.412-.009 4.235-.173 7.901-2.998 9.148-7.05l43.85-142.482c13.71 14.115 26.969 17.541 36.594 17.541s22.884-3.426 36.592-17.541l6.047 19.647c1.633 5.304 7.246 8.234 12.499 6.616 5.278-1.624 8.24-7.221 6.616-12.499l-5.579-18.129c18.047 4.709 30.727 1.127 38.826-3.546 6.95-4.013 14.902-11.402 20.12-24.962l47.983 87.414h-43.104c-4.089 0-7.767 2.489-9.285 6.286l-19.484 48.713-3.003-9.756c-1.624-5.278-7.219-8.242-12.499-6.616-5.278 1.624-8.24 7.221-6.616 12.499l11.33 36.815c1.247 4.052 4.912 6.877 9.148 7.05.138.006.274.009.412.009 4.073 0 7.759-2.479 9.282-6.286l27.486-68.714h53.229c3.534 0 6.806-1.865 8.605-4.907 1.8-3.041 1.861-6.807.161-9.904l-62.236-113.381c22.169-4.323 32.87-14.892 38.021-23.81 5.665-9.819 9.741-26.374-.654-51.081 21.362-16.212 26.103-32.584 26.103-43.917s-4.741-27.705-26.103-43.916c10.396-24.707 6.318-41.262.651-51.085-5.64-9.767-17.935-21.52-44.678-24.87-3.351-26.743-15.104-39.038-24.874-44.681-9.82-5.664-26.374-9.74-51.081.654-16.21-21.361-32.582-26.102-43.915-26.102s-27.705 4.741-43.916 26.103c-24.706-10.395-41.262-6.319-51.085-.651-9.767 5.64-21.52 17.935-24.87 44.678-26.743 3.351-39.038 15.104-44.681 24.874-5.665 9.819-9.741 26.374.654 51.081-21.361 16.21-26.102 32.582-26.102 43.915zm98.771 281.999-19.485-48.713c-1.519-3.797-5.197-6.286-9.286-6.286h-43.103l47.982-87.414c5.219 13.561 13.172 20.95 20.124 24.965 8.097 4.67 20.776 8.253 38.822 3.543zm-54.63-314.143c4.311-2.788 5.811-8.387 3.47-12.956-5.978-11.668-11.669-28.063-4.841-39.899 6.773-11.728 23.912-14.985 37.097-15.653 5.125-.26 9.222-4.356 9.481-9.481.668-13.185 3.926-30.323 15.649-37.094 11.843-6.832 28.236-1.139 39.903 4.838 4.572 2.341 10.169.841 12.956-3.47 7.124-11.013 18.482-24.141 32.144-24.141s25.021 13.128 32.144 24.141c2.788 4.311 8.388 5.811 12.956 3.47 11.668-5.978 28.061-11.668 39.899-4.841 11.728 6.773 14.985 23.912 15.653 37.097.26 5.125 4.356 9.222 9.481 9.481 13.185.668 30.323 3.926 37.094 15.649 6.831 11.841 1.14 28.235-4.838 39.903-2.341 4.569-.841 10.168 3.47 12.956 11.013 7.123 24.141 18.482 24.141 32.144s-13.128 25.021-24.141 32.144c-4.311 2.788-5.811 8.387-3.47 12.956 5.978 11.668 11.669 28.063 4.841 39.899-6.773 11.728-23.912 14.985-37.097 15.653-5.127.262-9.223 4.412-9.481 9.481-.668 13.185-3.926 30.323-15.649 37.094-11.844 6.832-28.235 1.139-39.903-4.838-4.582-2.345-10.184-.776-12.934 3.438-.007.011-.015.021-.022.032-7.123 11.013-18.482 24.141-32.144 24.141s-25.021-13.128-32.144-24.141c-.006-.01-.014-.018-.021-.028-2.787-4.281-8.396-5.766-12.936-3.442-11.667 5.978-28.062 11.669-39.899 4.841-11.728-6.773-14.985-23.912-15.653-37.097-.263-5.144-4.421-9.226-9.481-9.481-13.185-.668-30.323-3.926-37.094-15.649-6.831-11.841-1.14-28.235 4.838-39.903 2.341-4.569.841-10.168-3.47-12.956-11.012-7.123-24.14-18.482-24.14-32.144s13.128-25.021 24.141-32.144z" data-original="#000000" class="active-path" data-old_color="#000000" fill="#100B1E"/><circle cx="322" cy="422" r="10" data-original="#000000" class="active-path" data-old_color="#000000" fill="#100B1E"/></g></g> </svg>
