<?xml version="1.0"?>
<svg xmlns="http://www.w3.org/2000/svg" id="Capa_1" enable-background="new 0 0 512.003 512.003" height="512px" viewBox="0 0 512.003 512.003" width="512px" class=""><g><path d="m358.781 419.032c-4.248 0-8.085-2.787-9.462-6.789-1.301-3.78-.129-8.093 2.869-10.727 3.27-2.873 8.173-3.279 11.871-.98 3.438 2.138 5.294 6.299 4.563 10.285-.861 4.687-5.068 8.211-9.841 8.211z" data-original="#000000" class="active-path" data-old_color="#000000" fill="#100B1E"/><path d="m439.217 184.29c-18.751-25.071-44.109-42.771-71.404-49.84-18.154-4.698-40.098-4.303-65.236 1.178l-.001-.006c-.112.027-.349.081-.729.166-.657.132-1.305.283-1.939.431-1.578.369-4.009.951-6.614 1.629-3.417.885-6.89 1.656-10.353 2.3-.053-2.589-.15-5.25-.302-7.971 2.96-32.969 16.343-61.306 39.894-84.393 20.383-19.981 41.182-28.399 41.369-28.474 5.14-2.02 7.67-7.825 5.65-12.965-2.02-5.141-7.825-7.669-12.964-5.65-.977.385-24.192 9.661-47.422 32.19-12.306 11.935-25.964 29.033-35.4 51.981-5.039-14.281-12.625-27.95-23.87-39.183-45.327-45.277-130.275-31.179-135.28-30.3-.004.001-.008.001-.012.002-3.664.586-6.742 3.146-7.827 6.694-.16.523-.288 1.011-.361 1.418-.575 3.23-12.219 71.375 17.117 118.544-40.597 19.468-83.502 67.634-83.502 147.684 0 28.395 8.652 63.101 24.364 97.724 15.393 33.922 36.183 64.92 58.538 87.28 24.357 24.385 49.384 37.274 72.373 37.274 13.463 0 27.333-2.037 40.117-5.894 12.592-3.807 25.966-4.049 38.682-.701.044.012.089.024.133.035.786.208 1.569.43 2.356.668 12.778 3.854 26.648 5.892 40.111 5.892 21.996 0 45.971-11.86 69.328-34.294 48.194-46.228 85.946-128.8 85.946-187.984-.004-40.324-11.331-76.783-32.762-105.435zm-203.459-124.456c19.118 19.098 25.355 48.236 26.789 72.731-.354 4.497-.54 24.143-.54 24.143l-75.85-75.769c-3.908-3.903-10.24-3.901-14.142.008-3.903 3.907-3.9 10.239.007 14.143l76.377 76.295c-26.12 1.399-71.314-.585-97.535-26.778-31.494-31.46-28.032-90.164-25.728-110.477 20.331-2.302 79.119-5.766 110.622 25.704zm136.421 403.446c-19.564 18.79-38.749 28.723-55.479 28.723-11.368 0-23.561-1.79-34.33-5.038-.998-.302-2-.585-3.005-.851-.016-.004-.031-.009-.046-.013-16.331-4.323-33.513-4.025-49.682.862-10.774 3.25-22.968 5.04-34.336 5.04-17.565 0-37.698-10.861-58.226-31.412-43.205-43.216-77.048-118.27-77.048-170.866 0-73.497 40.057-116.135 76.192-131.482.169.172.34.344.511.515 27.411 27.381 69.516 33.009 99.51 33.008 19.025 0 33.202-2.154 35.609-2.68 7.986-1.748 7.791-5.471 8.288-7.769.006-.029.013-.058.019-.087.007-.032.013-.065.02-.097.008-.041.016-.082.024-.124.003-.018.007-.035.01-.053.187-1.044 1.536-8.872 2.284-20.583.586.004 1.18-.043 1.777-.145 4.685-.804 9.407-1.819 14.045-3.02 1.784-.465 3.51-.888 4.944-1.229 41.253 14.386 82.05 60.784 82.05 133.747 0 21.373-5.513 46.86-15.944 73.708-2 5.147.552 10.942 5.7 12.942 1.19.462 2.415.682 3.619.682 4.005 0 7.786-2.424 9.324-6.382 11.318-29.133 17.301-57.125 17.301-80.95 0-66.462-30.565-113.76-67.46-138.512 9.181-.191 17.519.675 24.951 2.598 42.95 11.123 89.176 58.399 89.176 135.913-.002 53.494-35.796 131.349-79.798 173.555z" data-original="#000000" class="active-path" data-old_color="#000000" fill="#100B1E"/></g> </svg>
