<?xml version="1.0"?>
<svg xmlns="http://www.w3.org/2000/svg" id="Capa_1" enable-background="new 0 0 512.024 512.024" height="512px" viewBox="0 0 512.024 512.024" width="512px"><g><g id="XMLID_35_"><g id="XMLID_118_"><path id="XMLID_142_" d="m461.301 138.546c.685.145 1.376.215 2.062.215 2.624 0 5.176-1.034 7.071-2.929l30.387-30.387c14.938-14.938 14.938-39.244 0-54.181-7.235-7.236-16.856-11.222-27.091-11.222-.591 0-1.18.013-1.767.04.026-.586.039-1.176.039-1.767 0-10.234-3.984-19.854-11.221-27.091-14.938-14.938-39.244-14.938-54.182 0l-30.387 30.387c-2.39 2.391-3.411 5.827-2.714 9.134l6.849 32.49-3.447 3.447c-40.51-30.153-90.202-46.679-140.9-46.679-63.038 0-122.303 24.548-166.877 69.123-44.575 44.574-69.123 103.839-69.123 166.877s24.548 122.303 69.123 166.877c44.574 44.574 103.839 69.123 166.877 69.123s122.303-24.548 166.877-69.123c44.575-44.574 69.123-103.839 69.123-166.877 0-50.686-16.509-100.348-46.641-140.854l3.453-3.452zm-130.952 63.328-20.177-20.177 75.102-75.102 2.169 10.286c.817 3.877 3.846 6.905 7.723 7.722l10.286 2.168zm-6.349 74.129c0 48.523-39.477 88-88 88s-88-39.477-88-88 39.477-88 88-88c11.413 0 22.659 2.219 33.118 6.463l-16.028 16.028c-1.879 1.88-2.934 4.431-2.929 7.089l.029 16.781c-4.456-1.523-9.225-2.361-14.19-2.361-24.262 0-44 19.738-44 44s19.738 44 44 44 44-19.738 44-44c0-4.949-.833-9.704-2.347-14.147l16.81.029h.018c2.652 0 5.195-1.053 7.071-2.929l16.011-16.011c4.227 10.443 6.437 21.671 6.437 33.058zm-33.654-34.125-20.143-.035-.035-20.142 25.861-25.861 20.177 20.177zm-30.346 34.125c0 13.233-10.767 24-24 24s-24-10.767-24-24 10.767-24 24-24c2.949 0 5.774.538 8.386 1.515l-11.519 11.519c-3.905 3.905-3.905 10.237 0 14.142 1.953 1.953 4.512 2.929 7.071 2.929 2.56 0 5.118-.977 7.071-2.929l11.5-11.5c.963 2.595 1.491 5.399 1.491 8.324zm213.73-215.961c4.892 0 9.49 1.905 12.948 5.363 7.14 7.14 7.14 18.757 0 25.896l-26.555 26.555-42.776-9.017 43.429-43.43c.002-.002.003-.003.005-.005 3.46-3.457 8.059-5.362 12.949-5.362zm-52.987-34.675c7.139-7.141 18.758-7.14 25.897 0 3.459 3.458 5.363 8.057 5.363 12.948s-1.904 9.49-5.363 12.948c-.002.002-.003.003-.005.005l-43.429 43.429-9.018-42.776zm31.257 250.636c0 119.103-96.897 216-216 216s-216-96.897-216-216 96.897-216 216-216c46.123 0 89.664 14.138 126.604 40.977l-31.616 31.616c-28.181-18.728-60.846-28.593-94.988-28.593-94.841 0-172 77.159-172 172 0 29.222 7.463 58.087 21.581 83.476 1.828 3.288 5.235 5.142 8.748 5.142 1.645 0 3.312-.407 4.852-1.262 4.826-2.684 6.563-8.773 3.879-13.6-12.469-22.423-19.06-47.928-19.06-73.756 0-83.813 68.186-152 152-152 28.806 0 56.418 7.942 80.524 23.057l-32.297 32.297c-14.909-7.443-31.425-11.354-48.227-11.354-59.552 0-108 48.449-108 108s48.448 108 108 108 108-48.449 108-108c0-16.774-3.898-33.282-11.321-48.174l32.3-32.299c15.094 24.093 23.021 51.681 23.021 80.473 0 83.813-68.186 152-152 152-25.837 0-51.349-6.595-73.778-19.073-4.828-2.685-10.915-.949-13.601 3.878-2.685 4.826-.948 10.915 3.878 13.6 25.396 14.128 54.27 21.595 83.501 21.595 94.841 0 172-77.159 172-172 0-34.13-9.852-66.768-28.559-94.936l31.607-31.607c26.474 36.626 40.952 81.133 40.952 126.543z" data-original="#000000" class="active-path" data-old_color="#000000" fill="#100B1E"/><path id="XMLID_149_" d="m121.451 380.553c-2.64 0-5.21 1.07-7.07 2.93-1.859 1.86-2.93 4.44-2.93 7.07 0 2.64 1.07 5.21 2.93 7.07s4.431 2.93 7.07 2.93c2.63 0 5.21-1.07 7.07-2.93 1.859-1.86 2.93-4.44 2.93-7.07s-1.07-5.21-2.93-7.07-4.44-2.93-7.07-2.93z" data-original="#000000" class="active-path" data-old_color="#000000" fill="#100B1E"/></g></g></g> </svg>
