<?xml version="1.0"?>
<svg xmlns="http://www.w3.org/2000/svg" id="Capa_1" enable-background="new 0 0 511.999 511.999" height="512px" viewBox="0 0 511.999 511.999" width="512px" class=""><g><g><g><path d="m511.242 181.818c-3.687-38.494-20.801-74.771-48.19-102.15-31.566-31.553-73.535-48.93-118.177-48.93-31.771 0-62.351 8.798-88.875 25.511-26.525-16.712-57.105-25.511-88.875-25.511-44.641 0-86.61 17.377-118.178 48.931-27.389 27.378-44.503 63.655-48.19 102.149-3.634 37.937 5.889 76.275 26.811 107.951 7.79 11.793 17.468 22.839 28.765 32.833l164.198 145.244c10.11 8.943 22.789 13.414 35.468 13.414s25.357-4.471 35.468-13.414l28.384-25.108 21.947-19.344c4.144-3.652 4.541-9.971.89-14.114s-9.971-4.542-14.114-.89l-21.961 19.356-28.398 25.12c-12.664 11.204-31.768 11.204-44.432 0l-164.197-145.243c-9.983-8.832-18.506-18.547-25.329-28.877-18.411-27.874-26.789-61.621-23.591-95.021 3.245-33.879 18.311-65.811 42.42-89.911 27.79-27.778 64.738-43.076 104.039-43.076 29.99 0 58.762 8.894 83.205 25.721 3.414 2.351 7.925 2.351 11.341 0 24.441-16.827 53.213-25.721 83.204-25.721 39.301 0 76.249 15.298 104.038 43.075 24.11 24.101 39.176 56.033 42.421 89.912 3.198 33.4-5.18 67.146-23.591 95.021-6.825 10.332-15.347 20.047-25.33 28.877l-46.09 40.962c-4.127 3.67-4.498 9.991-.829 14.118 3.671 4.127 9.99 4.499 14.118.829l42.82-38.071 3.231-2.859c11.297-9.991 20.975-21.038 28.767-32.834 20.923-31.676 30.446-70.014 26.812-107.95z" data-original="#000000" class="active-path" data-old_color="#000000" fill="#100B1E"/><path d="m378.45 382.03c-1.636-3.927-5.697-6.456-9.949-6.148-4.151.301-7.751 3.225-8.896 7.225-1.147 4.007.385 8.449 3.783 10.874 3.354 2.394 7.94 2.471 11.372.188 3.917-2.605 5.502-7.793 3.69-12.139z" data-original="#000000" class="active-path" data-old_color="#000000" fill="#100B1E"/><path d="m441.782 262.8c31.223-47.268 24.761-110.687-15.366-150.796-46.775-46.756-122.885-46.756-169.66 0l-.756.755-.756-.755c-46.775-46.755-122.885-46.755-169.66 0-40.127 40.109-46.589 103.528-15.367 150.796 5.523 8.361 12.474 16.272 20.659 23.513l144.455 127.781c5.892 5.211 13.278 7.817 20.668 7.816 7.387 0 14.776-2.606 20.668-7.816l144.454-127.781c8.186-7.24 15.137-15.151 20.661-23.513zm-33.911 8.532-144.454 127.781c-4.228 3.74-10.606 3.739-14.833 0l-144.455-127.78c-6.872-6.079-12.667-12.658-17.224-19.556-26.008-39.373-20.617-92.207 12.817-125.627 19.49-19.481 45.091-29.222 70.691-29.222s51.201 9.741 70.691 29.222l7.825 7.822c3.904 3.903 10.234 3.903 14.139 0l7.825-7.822c38.98-38.962 102.402-38.964 141.383 0 33.435 33.42 38.825 86.254 12.817 125.627-4.555 6.898-10.35 13.477-17.222 19.555z" data-original="#000000" class="active-path" data-old_color="#000000" fill="#100B1E"/><path d="m385.736 224.005h-48.643c-4.459 0-8.38 2.953-9.611 7.238l-6.198 21.572-20.133-88.799c-1.017-4.48-4.955-7.692-9.548-7.787-4.561-.107-8.66 2.954-9.858 7.389l-20.113 74.424h-3.77l-12.385-33.984c-1.441-3.956-5.202-6.576-9.394-6.576-.09 0-.18.001-.268.003-4.3.115-8.044 2.966-9.299 7.079l-7.156 23.464-10.351-48.421c-.92-4.304-4.545-7.5-8.93-7.874-4.381-.37-8.498 2.164-10.134 6.249l-19.596 48.969h-44.085c-5.522 0-10 4.477-10 10s4.478 10 10 10h50.855c4.089 0 7.766-2.489 9.284-6.285l9.911-24.768 11.561 54.085c.953 4.457 4.799 7.706 9.353 7.9 4.566.202 8.662-2.714 9.992-7.073l9.702-31.812 4.544 12.468c1.438 3.949 5.193 6.576 9.395 6.576h18.426c4.519 0 8.475-3.029 9.653-7.391l11.608-42.949 19.841 87.511c1.01 4.452 4.906 7.655 9.469 7.785.096.002.191.004.287.004 4.445 0 8.374-2.943 9.608-7.239l14.871-51.759h41.112c5.522 0 10-4.477 10-10 0-5.522-4.478-9.999-10-9.999z" data-original="#000000" class="active-path" data-old_color="#000000" fill="#100B1E"/></g></g></g> </svg>
