<?xml version="1.0"?>
<svg xmlns="http://www.w3.org/2000/svg" xmlns:xlink="http://www.w3.org/1999/xlink" version="1.1" id="Capa_1" x="0px" y="0px" viewBox="0 0 512 512" style="enable-background:new 0 0 512 512;" xml:space="preserve" width="512px" height="512px" class=""><g><g>
	<path d="M502,307.097c-5.523,0-10,4.477-10,10v129.042   c0,13.216-10.752,23.968-23.968,23.968H43.968C30.752,470.107,20,459.355,20,446.139V317.097c0-5.523-4.477-10-10-10   s-10,4.477-10,10v129.042c0,24.244,19.724,43.968,43.968,43.968h424.064c24.244,0,43.968-19.724,43.968-43.968V317.097   C512,311.574,507.523,307.097,502,307.097z" data-original="#000000" class="active-path" data-old_color="#000000" fill="#2B6272"/>
	<path d="M468.032,64.088h-37.234v-7.516c0-19.123-15.557-34.68-34.68-34.68   c-19.123,0-34.68,15.557-34.68,34.68v7.516h-24.053v-7.516c0-19.123-15.557-34.68-34.68-34.68c-19.123,0-34.68,15.557-34.68,34.68   v7.516h-24.052v-7.516c0-19.123-15.557-34.68-34.68-34.68c-19.122,0-34.68,15.557-34.68,34.68v7.516h-24.052v-7.516   c0-19.123-15.557-34.68-34.68-34.68c-19.122,0-34.68,15.557-34.68,34.68v7.516H43.968C19.724,64.088,0,83.812,0,108.055v129.042   c0,5.523,4.477,10,10,10s10-4.477,10-10V108.055c0-13.215,10.752-23.967,23.968-23.967h37.235v7.514   c0,19.122,15.557,34.68,34.68,34.68c19.123,0,34.68-15.557,34.68-34.68v-7.514h24.052v7.514c0,19.122,15.558,34.68,34.68,34.68   c19.123,0,34.68-15.557,34.68-34.68v-7.514h24.052v7.514c0,19.122,15.557,34.68,34.68,34.68c19.123,0,34.68-15.557,34.68-34.68   v-7.514h24.053v7.514c0,19.122,15.557,34.68,34.68,34.68c19.122,0,34.68-15.557,34.68-34.68v-7.514h37.234   c13.216,0,23.968,10.752,23.968,23.967v129.042c0,5.523,4.477,10,10,10s10-4.477,10-10V108.055   C512,83.812,492.276,64.088,468.032,64.088z M130.562,91.602c0,1.518-0.231,2.982-0.661,4.36   c-1.861,5.972-7.442,10.319-14.019,10.319c-6.577,0-12.157-4.348-14.019-10.319c-0.43-1.378-0.661-2.843-0.661-4.36V74.088V56.573   c0-8.094,6.585-14.68,14.68-14.68c8.094,0,14.68,6.585,14.68,14.68v17.516V91.602z M223.974,91.602c0,1.518-0.231,2.982-0.661,4.36   c-1.861,5.972-7.442,10.319-14.019,10.319c-8.095,0-14.68-6.585-14.68-14.68V74.088V56.573c0-8.094,6.585-14.68,14.68-14.68   c8.094,0,14.68,6.585,14.68,14.68v17.516V91.602z M317.386,91.602c0,8.094-6.585,14.68-14.68,14.68   c-8.094,0-14.68-6.585-14.68-14.68V74.088V56.573c0-8.094,6.585-14.68,14.68-14.68c8.094,0,14.68,6.585,14.68,14.68v17.516V91.602z    M410.798,91.602c0,1.518-0.232,2.982-0.661,4.36c-1.861,5.972-7.442,10.319-14.018,10.319c-6.577,0-12.157-4.348-14.019-10.319   c-0.43-1.378-0.661-2.843-0.661-4.36V74.088V56.573c0-8.094,6.585-14.68,14.68-14.68c8.095,0,14.68,6.585,14.68,14.68v17.516   V91.602z" data-original="#000000" class="active-path" data-old_color="#000000" fill="#2B6272"/>
	<path d="M53.202,446.905h405.596c5.523,0,10-4.477,10-10V155.29   c0-5.523-4.477-10-10-10H53.202c-5.523,0-10,4.477-10,10v281.614C43.202,442.428,47.679,446.905,53.202,446.905z M63.202,165.29   h385.596v261.614H63.202V165.29z" data-original="#000000" class="active-path" data-old_color="#000000" fill="#2B6272"/>
	<path d="M323.52,369.981h-48.113c-5.523,0-10,4.477-10,10c0,5.523,4.477,10,10,10   h48.113c5.523,0,10-4.477,10-10C333.52,374.458,329.043,369.981,323.52,369.981z" data-original="#000000" class="active-path" data-old_color="#000000" fill="#2B6272"/>
	<path d="M236.594,314.058H188.48c-5.523,0-10,4.477-10,10c0,5.523,4.477,10,10,10   h48.114c5.523,0,10-4.477,10-10C246.594,318.535,242.117,314.058,236.594,314.058z" data-original="#000000" class="active-path" data-old_color="#000000" fill="#2B6272"/>
	<path d="M236.594,369.981H188.48c-5.523,0-10,4.477-10,10c0,5.523,4.477,10,10,10   h48.114c5.523,0,10-4.477,10-10C246.594,374.458,242.117,369.981,236.594,369.981z" data-original="#000000" class="active-path" data-old_color="#000000" fill="#2B6272"/>
	<path d="M149.669,369.981h-48.114c-5.523,0-10,4.477-10,10c0,5.523,4.477,10,10,10   h48.114c5.523,0,10-4.477,10-10C159.669,374.458,155.191,369.981,149.669,369.981z" data-original="#000000" class="active-path" data-old_color="#000000" fill="#2B6272"/>
	<path d="M149.669,258.136h-48.114c-5.523,0-10,4.477-10,10c0,5.523,4.477,10,10,10   h48.114c5.523,0,10-4.477,10-10C159.669,262.613,155.191,258.136,149.669,258.136z" data-original="#000000" class="active-path" data-old_color="#000000" fill="#2B6272"/>
	<path d="M149.669,314.058h-48.114c-5.523,0-10,4.477-10,10c0,5.523,4.477,10,10,10   h48.114c5.523,0,10-4.477,10-10C159.669,318.535,155.191,314.058,149.669,314.058z" data-original="#000000" class="active-path" data-old_color="#000000" fill="#2B6272"/>
	<path d="M236.594,258.136H188.48c-5.523,0-10,4.477-10,10c0,5.523,4.477,10,10,10   h48.114c5.523,0,10-4.477,10-10C246.594,262.613,242.117,258.136,236.594,258.136z" data-original="#000000" class="active-path" data-old_color="#000000" fill="#2B6272"/>
	<path d="M410.445,258.136h-48.114c-5.523,0-10,4.477-10,10c0,5.523,4.477,10,10,10   h48.114c5.523,0,10-4.477,10-10C420.445,262.613,415.968,258.136,410.445,258.136z" data-original="#000000" class="active-path" data-old_color="#000000" fill="#2B6272"/>
	<path d="M323.52,314.058h-48.113c-5.523,0-10,4.477-10,10c0,5.523,4.477,10,10,10   h48.113c5.523,0,10-4.477,10-10C333.52,318.535,329.043,314.058,323.52,314.058z" data-original="#000000" class="active-path" data-old_color="#000000" fill="#2B6272"/>
	<path d="M410.445,202.214h-48.114c-5.523,0-10,4.477-10,10c0,5.523,4.477,10,10,10   h48.114c5.523,0,10-4.477,10-10C420.445,206.691,415.968,202.214,410.445,202.214z" data-original="#000000" class="active-path" data-old_color="#000000" fill="#2B6272"/>
	<path d="M410.445,314.058h-48.114c-5.523,0-10,4.477-10,10c0,5.523,4.477,10,10,10   h48.114c5.523,0,10-4.477,10-10C420.445,318.535,415.968,314.058,410.445,314.058z" data-original="#000000" class="active-path" data-old_color="#000000" fill="#2B6272"/>
	<path d="M323.52,258.136h-48.113c-5.523,0-10,4.477-10,10c0,5.523,4.477,10,10,10   h48.113c5.523,0,10-4.477,10-10C333.52,262.613,329.043,258.136,323.52,258.136z" data-original="#000000" class="active-path" data-old_color="#000000" fill="#2B6272"/>
	<path d="M410.445,369.981h-48.114c-5.523,0-10,4.477-10,10c0,5.523,4.477,10,10,10   h48.114c5.523,0,10-4.477,10-10C420.445,374.458,415.968,369.981,410.445,369.981z" data-original="#000000" class="active-path" data-old_color="#000000" fill="#2B6272"/>
	<path d="M323.52,202.214h-48.113c-5.523,0-10,4.477-10,10c0,5.523,4.477,10,10,10   h48.113c5.523,0,10-4.477,10-10C333.52,206.691,329.043,202.214,323.52,202.214z" data-original="#000000" class="active-path" data-old_color="#000000" fill="#2B6272"/>
	<path d="M10,287.097c5.508,0,10-4.492,10-10c0-5.508-4.492-10-10-10s-10,4.492-10,10   C0.001,282.605,4.493,287.097,10,287.097z" data-original="#000000" class="active-path" data-old_color="#000000" fill="#2B6272"/>
	<path d="M502,267.097c-5.508,0-10,4.492-10,10c0,5.508,4.492,10,10,10   s10-4.492,10-10C512,271.589,507.508,267.097,502,267.097z" data-original="#000000" class="active-path" data-old_color="#000000" fill="#2B6272"/>
</g></g> </svg>
