<?xml version="1.0"?>
<svg xmlns="http://www.w3.org/2000/svg" id="Capa_1" enable-background="new 0 0 512 512" height="512px" viewBox="0 0 512 512" width="512px" class=""><g><path d="m506.425 234.057c-19.847-9.794-48.06-12.601-80.476-8.166 4.435-33.346 2.421-65.876-9.289-89.608-1.789-3.625-5.577-5.808-9.619-5.554-22.706 1.483-49.522 12.942-76.469 32.514-14.412-48.521-38.157-93.424-68.741-115.367-3.483-2.499-8.174-2.501-11.659 0-7.295 5.234-14.443 11.982-21.245 20.058-3.558 4.224-3.018 10.533 1.206 14.091 4.225 3.558 10.533 3.019 14.091-1.206 3.858-4.58 7.801-8.621 11.78-12.074 18.444 15.992 35.566 44.098 48.721 80.203 13.685 37.56 21.533 79.675 21.533 115.547 0 60.676-22.416 87.722-60.256 116.606v-199.633c0-5.523-4.478-10-10-10-5.523 0-10 4.477-10 10v199.632c-37.841-28.884-60.257-55.93-60.257-116.606 0-32.971 6.824-72.156 18.721-107.508 1.762-5.234-1.053-10.905-6.288-12.667-5.232-1.76-10.906 1.054-12.667 6.288-1.407 4.18-2.736 8.419-4.006 12.69-26.972-19.605-53.816-31.083-76.543-32.568-4.031-.261-7.83 1.928-9.62 5.554-11.71 23.733-13.724 56.264-9.288 89.61-32.417-4.434-60.635-1.627-80.478 8.164-3.625 1.789-5.817 5.585-5.554 9.62 2.857 43.726 45.049 95.94 87.678 126.32-5.945 4.81-10.717 9.967-14.244 15.421-2.137 3.304-2.137 7.555 0 10.859 17.92 27.716 67.286 44.872 102.746 44.872 13.042 0 23.444-2.281 32.146-6.299 11.957 11.591 26.995 20.743 42.642 29.803 1.55.897 3.28 1.346 5.011 1.346 1.73 0 3.461-.449 5.011-1.346 15.643-9.058 30.679-18.21 42.636-29.799 8.7 4.015 19.103 6.294 32.152 6.294 35.461 0 84.826-17.155 102.745-44.871 2.137-3.304 2.137-7.554.001-10.858-3.526-5.454-8.297-10.61-14.244-15.422 42.629-30.38 84.822-82.596 87.677-126.321.263-4.035-1.928-7.83-5.554-9.619zm-160.168 30.437c0-24.782-3.522-52.738-10.115-80.417 23.204-18.017 46.013-29.384 65.324-32.586 7.162 19.075 8.579 45.858 3.938 76.46-4.895 32.27-16.015 65.176-30.509 90.282-18.12 31.383-37.905 44.661-65.484 50.937 22.824-24.793 36.846-55.361 36.846-104.676zm-235.722-113.003c19.331 3.206 42.167 14.593 65.397 32.643-6.564 27.507-10.188 55.549-10.188 80.36 0 49.313 14.021 79.882 36.844 104.673-27.579-6.278-47.367-19.558-65.482-50.934-14.494-25.105-25.614-58.012-30.509-90.282-4.641-30.602-3.224-57.385 3.938-76.46zm-59.378 156.453c-16.618-20.798-27.186-41.323-30.315-58.655 17.204-6.156 41.566-7.098 68.771-2.625 6.221 29.747 17.043 58.826 30.173 81.569 14.154 24.516 29.99 39.497 46.897 48.875-15.757 1.432-32.261-2.113-52.717-13.922-22.028-12.719-44.921-32.854-62.809-55.242zm43.372 82.921c3.006-3.214 6.792-6.363 11.241-9.351 20.763 11.651 38.644 15.888 54.606 15.888 14.649 0 27.688-3.553 39.872-8.161 7.997 1.693 16.129 2.779 24.341 3.597-13.207 19.2-24.08 28.311-48.388 28.311-27.09 0-64.878-12.186-81.672-30.284zm161.471 53.559c-11.317-6.657-22.027-13.443-30.726-21.154 6.14-5.776 11.436-12.677 16.606-20.285 2.715 1.999 5.478 4.002 8.29 6.02 1.742 1.25 3.786 1.875 5.83 1.875 2.043 0 4.087-.625 5.83-1.875 2.812-2.018 5.575-4.021 8.29-6.02 5.169 7.61 10.462 14.512 16.602 20.289-8.699 7.71-19.408 14.495-30.722 21.15zm79.8-23.276c-24.333 0-35.186-9.11-48.389-28.311 8.214-.818 16.346-1.903 24.345-3.596 12.183 4.608 25.218 8.161 39.869 8.161 15.959 0 33.843-4.237 54.606-15.888 4.45 2.988 8.236 6.137 11.241 9.351-16.793 18.097-54.583 30.283-81.672 30.283zm125.044-113.204c-17.888 22.388-40.78 42.523-62.81 55.241-20.455 11.81-36.958 15.355-52.713 13.923 16.904-9.376 32.738-24.358 46.893-48.876 13.131-22.743 23.952-51.822 30.173-81.568 27.206-4.472 51.564-3.533 68.77 2.624-3.128 17.332-13.695 37.857-30.313 58.656z" data-original="#000000" class="active-path" data-old_color="#000000" fill="#100B1E"/><path d="m212.207 122.209c5.523 0 10-4.477 10-10s-4.477-10-10-10h-.007c-5.523 0-9.996 4.477-9.996 10s4.48 10 10.003 10z" data-original="#000000" class="active-path" data-old_color="#000000" fill="#100B1E"/></g> </svg>
