<?xml version="1.0"?>
<svg xmlns="http://www.w3.org/2000/svg" id="Capa_1" enable-background="new 0 0 512 512" height="512px" viewBox="0 0 512 512" width="512px"><g><g><g><path d="m290.471 277.85-35.4-28.461c-15.783-14.645-32.446-14.644-48.229 0l-35.392 28.455c-8.369 6.715-14.022 15.821-16.805 27.083-4.393 17.929.467 37.221 12.69 50.354 13.354 14.317 33.975 16.664 53.831 6.117 7.685-4.101 11.894-4.103 19.599.008 8.234 4.375 16.601 6.529 24.53 6.528 11.174 0 21.477-4.282 29.292-12.662 12.215-13.125 17.074-32.416 12.678-50.366-2.78-11.241-8.432-20.347-16.794-27.056zm-10.517 63.789c-10.1 10.826-24.208 5.078-29.79 2.113-13.642-7.279-24.772-7.28-38.397-.009-5.597 2.974-19.708 8.722-29.799-2.097-7.68-8.251-10.706-20.498-7.902-31.941 1.75-7.079 4.896-12.246 9.909-16.269l35.688-28.693c.201-.162.396-.331.583-.507 4.155-3.906 7.433-5.858 10.712-5.858 3.278 0 6.557 1.953 10.711 5.858.188.176.383.346.583.507l35.696 28.699c5.006 4.017 8.152 9.184 9.897 16.243 2.806 11.464-.219 23.711-7.891 31.954z" data-original="#000000" class="active-path" data-old_color="#000000" fill="#2B6272"/><path d="m273.689 223.54c17.974 0 32.053-18.189 32.053-41.408s-14.079-41.408-32.053-41.408c-17.958 0-32.025 18.189-32.025 41.408s14.067 41.408 32.025 41.408zm0-62.816c5.689 0 12.053 9.155 12.053 21.408s-6.363 21.408-12.053 21.408c-5.677 0-12.025-9.155-12.025-21.408.001-12.253 6.348-21.408 12.025-21.408z" data-original="#000000" class="active-path" data-old_color="#000000" fill="#2B6272"/><path d="m361.707 203.976c-6.119-3.563-13.6-4.43-21.067-2.435-10.474 2.795-20.122 10.738-26.483 21.814-11.27 19.732-8.161 42.149 7.094 51.046 3.959 2.298 8.485 3.468 13.212 3.468 2.595 0 5.251-.353 7.904-1.066 10.478-2.815 20.111-10.762 26.425-21.796 11.323-19.754 8.209-42.167-7.085-51.031zm-10.269 41.091c-3.584 6.261-9.048 11.02-14.261 12.421-1.629.438-3.973.728-5.867-.374-4.745-2.768-5.662-13.551.203-23.82 3.605-6.278 9.078-11.04 14.283-12.429.972-.259 1.877-.389 2.713-.389 1.19 0 2.241.263 3.14.787.01.005.019.011.028.016 4.747 2.749 5.655 13.503-.239 23.788z" data-original="#000000" class="active-path" data-old_color="#000000" fill="#2B6272"/><path d="m147.745 223.335c-6.349-11.055-15.997-18.999-26.471-21.793-7.469-1.993-14.95-1.126-21.071 2.438-15.292 8.864-18.403 31.274-7.085 51.022 6.318 11.04 15.95 18.986 26.428 21.801 2.652.713 5.306 1.066 7.901 1.066 4.729 0 9.263-1.172 13.234-3.478 15.237-8.887 18.345-31.305 7.064-51.056zm-17.122 33.769c-1.913 1.111-4.257.822-5.886.384-5.213-1.401-10.676-6.16-14.262-12.426-5.892-10.279-4.984-21.034-.237-23.782.01-.006.019-.011.028-.017.898-.524 1.948-.787 3.139-.787.836 0 1.742.129 2.712.389 5.206 1.389 10.679 6.151 14.272 12.409 5.877 10.289 4.961 21.073.234 23.83z" data-original="#000000" class="active-path" data-old_color="#000000" fill="#2B6272"/><path d="m498.019 345.606c-9.258-9.68-21.75-15.145-35.174-15.389-.313-.006-.625-.009-.937-.009-4.248 0-8.413.537-12.428 1.562 12.042-35.165 15.504-72.697 9.974-110.187-7.315-49.604-29.831-94.617-65.11-130.171-37.811-38.135-87.903-61.984-141.051-67.154-52.431-5.096-105.409 8.08-149.173 37.111-4.603 3.053-5.858 9.259-2.805 13.861s9.257 5.859 13.861 2.805c83.098-55.125 194.534-43.578 264.968 27.461 62.015 62.498 79.034 155.735 44.226 235.767-6.094-4.93-13.176-8.308-20.748-9.934 10.145-23.659 15.475-49.406 15.475-75.322 0-50.646-19.558-98.256-55.071-134.06-35.534-35.826-82.797-55.557-133.083-55.557-103.734 0-188.128 85.062-188.128 189.618 0 104.54 84.394 189.589 188.128 189.589 43.151 0 84.383-14.704 117.691-41.675 2.423 4.682 5.609 9.059 9.582 12.921l5.077 4.939c-83.277 67.805-204.92 61.91-281.467-15.292-70.473-71.024-81.951-183.432-27.294-267.281 3.016-4.627 1.71-10.822-2.917-13.839-4.627-3.016-10.822-1.711-13.838 2.917-28.733 44.079-41.77 97.428-36.709 150.219 5.131 53.529 28.77 103.984 66.558 142.068 44.977 45.361 104.161 68.239 163.46 68.239 51.96 0 104.004-17.589 146.623-53.007l42.812 41.651c1.941 1.889 4.457 2.833 6.974 2.833s5.034-.945 6.975-2.834l62.273-60.612c19.832-19.28 20.406-51.238 1.276-71.238zm-141.075 0c-9.797 10.243-14.413 23.621-13.935 36.827-30.869 27.867-70.474 43.164-112.066 43.164-92.706 0-168.128-76.077-168.128-169.589 0-93.527 75.422-169.617 168.128-169.617 92.721 0 168.156 76.09 168.156 169.617 0 26.202-6.064 52.21-17.567 75.533-9.323 2.179-17.822 6.99-24.588 14.065zm125.854 56.903-55.304 53.829-55.333-53.833c-11.989-11.657-12.332-30.98-.764-43.076 5.545-5.797 13.032-9.07 21.084-9.216.188-.003.375-.005.562-.005 7.845 0 15.23 2.989 20.842 8.445l6.633 6.459c3.891 3.787 10.089 3.78 13.968-.015l6.584-6.438c5.753-5.593 13.37-8.601 21.41-8.446 8.053.146 15.54 3.419 21.085 9.216 11.569 12.096 11.226 31.419-.767 43.08z" data-original="#000000" class="active-path" data-old_color="#000000" fill="#2B6272"/><path d="m188.225 223.54c17.958 0 32.025-18.189 32.025-41.408s-14.067-41.408-32.025-41.408c-17.974 0-32.054 18.189-32.054 41.408s14.081 41.408 32.054 41.408zm0-62.816c5.676 0 12.025 9.155 12.025 21.408s-6.348 21.408-12.025 21.408c-5.69 0-12.053-9.155-12.053-21.408s6.364-21.408 12.053-21.408z" data-original="#000000" class="active-path" data-old_color="#000000" fill="#2B6272"/><path d="m74.699 108.481c2.559 0 5.119-.976 7.071-2.929l.028-.028c3.905-3.905 3.891-10.223-.014-14.129-3.905-3.904-10.251-3.89-14.157.014-3.905 3.905-3.905 10.237 0 14.143 1.953 1.953 4.513 2.929 7.072 2.929z" data-original="#000000" class="active-path" data-old_color="#000000" fill="#2B6272"/></g></g></g> </svg>
