<?xml version="1.0"?>
<svg xmlns="http://www.w3.org/2000/svg" xmlns:xlink="http://www.w3.org/1999/xlink" version="1.1" id="Capa_1" x="0px" y="0px" viewBox="0 0 512 512" style="enable-background:new 0 0 512 512;" xml:space="preserve" width="512px" height="512px" class=""><g><g>
	<g>
		<path d="M294.815,299.108c-12.078-1.659-27.743-3.042-44.194-4.178v-19.086h22.823c6.887,0,12.49-5.603,12.49-12.49v-34.077    c0-6.887-5.603-12.49-12.49-12.49H124.101c-4.139,0-7.494,3.355-7.494,7.494c0,4.139,3.355,7.494,7.494,7.494h146.846v29.081    H46.453v-29.081h32.682c4.14,0,7.494-3.355,7.494-7.494c0-4.139-3.355-7.494-7.494-7.494h-35.18c-6.887,0-12.49,5.603-12.49,12.49    v34.077c0,6.887,5.603,12.49,12.49,12.49h22.824v19.086c-16.451,1.136-32.117,2.52-44.196,4.178    c-6.149,0.845-10.786,6.165-10.786,12.375v179.82c0,6.21,4.637,11.53,10.787,12.375c35.266,4.843,101.146,7.341,127.834,8.191    c2.748,0.087,5.514,0.131,8.281,0.131c2.767,0,5.535-0.043,8.282-0.131c26.688-0.849,92.568-3.348,127.835-8.191    c6.149-0.845,10.786-6.165,10.786-12.375v-179.82C305.602,305.273,300.965,299.953,294.815,299.108z M81.767,275.975h0.001    h153.865v17.995c-27.002-1.604-53.853-2.582-68.652-3.052c-5.495-0.175-11.068-0.175-16.563,0    c-14.798,0.471-41.649,1.448-68.651,3.052V275.975z M290.613,489.118c-36.142,4.691-103.881,7.126-124.109,7.77    c-5.179,0.164-10.43,0.164-15.61,0c-20.228-0.644-87.967-3.08-124.108-7.77v-175.45c36.153-4.692,103.884-7.126,124.108-7.77    c5.18-0.165,10.431-0.165,15.61,0c20.225,0.644,87.956,3.078,124.109,7.77V489.118z" data-original="#000000" class="active-path" data-old_color="#000000" fill="#246A73"/>
	</g>
</g><g>
	<g>
		<path d="M489.016,60.106l-51.322-49.695c-14.337-13.881-36.796-13.881-51.133,0l-51.323,49.695    c-7.109,6.884-11.186,16.508-11.186,26.404v236.505c0,9.896,4.077,19.52,11.187,26.404l51.322,49.695    c5.211,5.045,11.496,8.247,18.072,9.625v94.686c0,4.139,3.355,7.494,7.494,7.494s7.494-3.355,7.494-7.494v-94.686    c6.577-1.378,12.863-4.58,18.073-9.625l10.001-9.685c2.973-2.879,3.05-7.624,0.17-10.597c-2.879-2.973-7.623-3.05-10.597-0.17    l-10,9.684c-2.266,2.194-4.879,3.783-7.646,4.806v-39.291c0.42-0.369,0.808-0.785,1.148-1.259l44.518-62.067    c2.412-3.363,1.641-8.045-1.722-10.457c-3.361-2.412-8.045-1.642-10.458,1.722l-33.485,46.686v-87.748    c0.42-0.369,0.808-0.785,1.148-1.259l44.518-62.068c2.412-3.363,1.641-8.045-1.722-10.457c-3.361-2.413-8.045-1.642-10.458,1.722    l-33.485,46.686v-76.34c0-4.139-3.355-7.494-7.494-7.494c-4.139,0-7.494,3.355-7.494,7.494v185.907L373.699,281.8    c-2.412-3.364-7.096-4.135-10.458-1.722c-3.364,2.412-4.135,7.094-1.722,10.457l43.114,60.11v42.507    c-2.768-1.023-5.381-2.612-7.646-4.806l-51.322-49.695c-4.21-4.076-6.624-9.775-6.624-15.636V86.51    c0-5.86,2.414-11.56,6.624-15.636l51.322-49.695c8.491-8.22,21.792-8.22,30.282,0l51.321,49.695    c4.211,4.077,6.625,9.776,6.625,15.636v236.505c0,5.86-2.414,11.56-6.624,15.636l-7.828,7.579    c-2.973,2.879-3.05,7.624-0.172,10.597c2.88,2.973,7.624,3.051,10.597,0.171l7.828-7.579c7.11-6.884,11.187-16.507,11.187-26.404    V86.51C500.202,76.614,496.125,66.99,489.016,60.106z" data-original="#000000" class="active-path" data-old_color="#000000" fill="#246A73"/>
	</g>
</g></g> </svg>
